<svg width="62" height="52" viewBox="0 0 62 52" fill="none" xmlns="http://www.w3.org/2000/svg">
<g clip-path="url(#clip0_1_2582)">
<path d="M0.288797 38.1126C0.480594 37.9203 0.716481 37.8247 0.995358 37.8247C1.27423 37.8247 1.51012 37.9203 1.70192 38.1126C1.89371 38.3039 1.99072 38.5391 1.99072 38.8171C1.99072 39.0952 1.89482 39.3205 1.70192 39.5161C1.50902 39.7117 1.27423 39.8095 0.995358 39.8095C0.716481 39.8095 0.480594 39.7117 0.288797 39.5161C0.0970005 39.3205 0 39.0875 0 38.8171C0 38.5468 0.0958982 38.3039 0.288797 38.1126ZM1.84411 51.0305C1.84411 51.2635 1.76254 51.4635 1.60051 51.6284C1.43847 51.7943 1.24006 51.8767 1.00638 51.8767C0.772697 51.8767 0.57098 51.7943 0.401229 51.6284C0.231479 51.4635 0.146603 51.2635 0.146603 51.0305V42.0988C0.146603 41.8581 0.229274 41.6548 0.395718 41.4899C0.562162 41.3251 0.764981 41.2416 1.00638 41.2416C1.24778 41.2416 1.44729 41.324 1.60602 41.4899C1.76475 41.6559 1.84411 41.8581 1.84411 42.0988V51.0305Z" fill="white"/>
<path d="M6.03943 51.0482C6.03943 51.2801 5.95676 51.4757 5.79031 51.6362C5.62387 51.7966 5.42436 51.8769 5.19067 51.8769C4.95699 51.8769 4.75638 51.7966 4.59103 51.6351C4.42459 51.4735 4.34192 51.2757 4.34192 51.0427V38.2765C4.34192 38.0359 4.42459 37.8369 4.59103 37.6787C4.75638 37.5204 4.95699 37.4424 5.19067 37.4424C5.42436 37.4424 5.62387 37.5215 5.79031 37.6787C5.95566 37.8369 6.03943 38.0359 6.03943 38.2765V42.7199C6.49908 42.2869 7.03479 41.944 7.64545 41.6901C8.3013 41.4065 8.99905 41.2648 9.73757 41.2648C10.4761 41.2648 11.1838 41.4054 11.8352 41.6879C12.4867 41.9703 13.0565 42.3528 13.5426 42.8364C14.0287 43.321 14.4134 43.8903 14.6967 44.5431C14.9789 45.1959 15.1211 45.8949 15.1211 46.6379C15.1211 47.3808 14.98 48.0688 14.6967 48.7216C14.4134 49.3755 14.0298 49.9437 13.5426 50.4284C13.0565 50.913 12.4867 51.2955 11.8352 51.5768C11.1827 51.8582 10.4838 51.9989 9.73757 51.9989C8.99133 51.9989 8.3013 51.8604 7.64545 51.5845C7.03479 51.323 6.49908 50.9757 6.03943 50.5427V51.046V51.0482ZM6.03943 46.639C6.03943 47.1434 6.13533 47.6182 6.32823 48.0622C6.52002 48.5062 6.78236 48.8963 7.11415 49.2315C7.44594 49.5667 7.83835 49.8305 8.29028 50.0217C8.74222 50.2141 9.22501 50.3097 9.73757 50.3097C10.2501 50.3097 10.7418 50.2141 11.1915 50.0217C11.6401 49.8294 12.0303 49.5667 12.3621 49.2315C12.6939 48.8963 12.954 48.5073 13.1425 48.0622C13.331 47.6171 13.4258 47.1434 13.4258 46.639C13.4258 46.1345 13.331 45.6465 13.1425 45.1992C12.954 44.7519 12.6939 44.3618 12.3621 44.0299C12.0303 43.6991 11.6401 43.4375 11.1915 43.2452C10.7429 43.0529 10.2578 42.9573 9.73757 42.9573C9.2173 42.9573 8.74442 43.054 8.29579 43.2452C7.84717 43.4375 7.45475 43.6991 7.11966 44.0299C6.78457 44.3607 6.51782 44.753 6.32271 45.2047C6.14966 45.6191 6.05486 46.0598 6.04053 46.5258V46.639H6.03943Z" fill="white"/>
<path d="M16.6544 38.1126C16.8462 37.9203 17.0821 37.8247 17.361 37.8247C17.6398 37.8247 17.8757 37.9203 18.0675 38.1126C18.2593 38.3039 18.3563 38.5391 18.3563 38.8171C18.3563 39.0952 18.2604 39.3205 18.0675 39.5161C17.8757 39.7117 17.6398 39.8095 17.361 39.8095C17.0821 39.8095 16.8462 39.7117 16.6544 39.5161C16.4626 39.3205 16.3656 39.0875 16.3656 38.8171C16.3656 38.5468 16.4615 38.3039 16.6544 38.1126ZM18.2097 51.0305C18.2097 51.2635 18.1281 51.4635 17.9661 51.6284C17.8041 51.7943 17.6057 51.8767 17.372 51.8767C17.1383 51.8767 16.9366 51.7943 16.7668 51.6284C16.5971 51.4635 16.5122 51.2635 16.5122 51.0305V42.0988C16.5122 41.8581 16.5949 41.6548 16.7613 41.4899C16.9278 41.3251 17.1306 41.2416 17.372 41.2416C17.6134 41.2416 17.8129 41.324 17.9716 41.4899C18.1303 41.6559 18.2097 41.8581 18.2097 42.0988V51.0305Z" fill="white"/>
<path d="M21.9364 46.7387C21.533 46.5695 21.1748 46.3662 20.8617 46.1299C20.5487 45.8936 20.2962 45.6166 20.1033 45.3012C19.9116 44.9858 19.8145 44.6099 19.8145 44.1736C19.8145 43.7077 19.916 43.2922 20.1199 42.9274C20.3238 42.5625 20.5928 42.2548 20.929 42.0031C21.264 41.7514 21.6476 41.5591 22.0775 41.4283C22.5074 41.2964 22.9483 41.2305 23.4003 41.2305C23.7243 41.2305 24.0484 41.2623 24.3725 41.3261C24.6965 41.3898 25.0019 41.4854 25.2885 41.614C25.5751 41.7415 25.833 41.9031 26.0634 42.0987C26.2937 42.2943 26.4767 42.5196 26.6123 42.7757C26.695 42.9482 26.7258 43.1065 26.7027 43.2494C26.6795 43.3922 26.62 43.5164 26.5219 43.6219C26.4161 43.7351 26.2838 43.8121 26.1262 43.8527C25.9675 43.8945 25.8131 43.8769 25.6621 43.8022C25.3458 43.4791 25.0228 43.2197 24.6954 43.0241C24.3681 42.8284 23.9734 42.7306 23.5138 42.7306C23.2647 42.7306 23.0222 42.7548 22.7841 42.8043C22.546 42.8526 22.3355 42.9339 22.1503 43.046C21.9651 43.1592 21.8163 43.3032 21.7039 43.4802C21.5914 43.6571 21.5341 43.8692 21.5341 44.1176C21.5341 44.366 21.5892 44.5627 21.6983 44.7319C21.8075 44.9012 21.9585 45.0474 22.1503 45.1715C22.3421 45.2957 22.5647 45.4045 22.8172 45.4991C23.0696 45.5936 23.3429 45.6848 23.6373 45.7749C24.1123 45.9255 24.5632 46.0837 24.9886 46.2486C25.4141 46.4145 25.79 46.6157 26.1141 46.8519C26.4381 47.0893 26.6972 47.3707 26.889 47.6982C27.0808 48.0257 27.1778 48.4257 27.1778 48.8994C27.1778 49.3434 27.083 49.7533 26.8956 50.1292C26.7071 50.5051 26.4448 50.8326 26.1097 51.1106C25.7746 51.3887 25.38 51.6063 24.928 51.7646C24.4761 51.9228 23.9889 52.0008 23.4686 52.0008C23.0916 52.0008 22.7146 51.9635 22.3377 51.8876C21.9607 51.8129 21.6058 51.6975 21.274 51.5436C20.9422 51.3898 20.6391 51.1964 20.3635 50.9623C20.0879 50.7293 19.8675 50.4512 19.7021 50.1281C19.5665 49.8797 19.5302 49.6588 19.5952 49.4621C19.6591 49.2665 19.7738 49.1203 19.9402 49.0225C20.1055 48.9247 20.3007 48.8928 20.5222 48.9269C20.7449 48.961 20.9466 49.0906 21.1274 49.3159C21.3831 49.7292 21.6983 50.0303 22.072 50.2182C22.4457 50.4062 22.9109 50.5007 23.4686 50.5007C23.732 50.5007 23.9867 50.4655 24.2325 50.3941C24.4772 50.3226 24.6965 50.2215 24.8883 50.0896C25.0801 49.9578 25.2356 49.7984 25.3524 49.6105C25.4692 49.4225 25.5277 49.2082 25.5277 48.9676C25.5277 48.7049 25.4593 48.4807 25.3237 48.2971C25.1882 48.1136 25.0085 47.9532 24.7869 47.818C24.5643 47.6828 24.3141 47.5685 24.0352 47.474C23.7563 47.3806 23.473 47.2915 23.1864 47.2091C22.7565 47.0663 22.3399 46.9102 21.9364 46.7409V46.7387Z" fill="white"/>
<path d="M38.7726 51.0417C38.7726 51.2747 38.6899 51.4715 38.5235 51.6341C38.357 51.7957 38.1575 51.8759 37.9238 51.8759C37.6902 51.8759 37.4807 51.7957 37.3187 51.6341C37.1567 51.4726 37.0751 51.2747 37.0751 51.0417V50.545C36.5923 50.9967 36.0367 51.3517 35.4073 51.611C34.7779 51.8704 34.1044 52.0001 33.388 52.0001C32.6715 52.0001 31.9517 51.8594 31.2958 51.577C30.64 51.2956 30.0668 50.9121 29.5763 50.4263C29.0858 49.9416 28.7 49.3723 28.4167 48.7184C28.1334 48.0645 27.9923 47.3688 27.9923 46.6325C27.9923 45.8961 28.1334 45.1895 28.4167 44.5345C28.6989 43.8805 29.0858 43.3113 29.5763 42.8266C30.0668 42.3419 30.64 41.9584 31.2958 41.6759C31.9517 41.3935 32.6494 41.2528 33.388 41.2528C34.1265 41.2528 34.7768 41.3825 35.4073 41.6419C36.0367 41.9012 36.5934 42.2562 37.0751 42.7079V38.2756C37.0751 38.0349 37.1556 37.836 37.3187 37.6777C37.4807 37.5194 37.6824 37.4414 37.9238 37.4414C38.1652 37.4414 38.357 37.5205 38.5235 37.6777C38.6888 37.836 38.7726 38.0349 38.7726 38.2756V51.0417ZM29.9896 48.0535C30.1814 48.4975 30.4438 48.8866 30.7756 49.2207C31.1074 49.5548 31.4976 49.8185 31.9462 50.0098C32.3948 50.201 32.8754 50.2977 33.388 50.2977C33.9005 50.2977 34.3921 50.2021 34.8408 50.0098C35.2894 49.8174 35.6796 49.5548 36.0114 49.2207C36.3432 48.8866 36.6033 48.4975 36.7918 48.0535C36.9803 47.6106 37.074 47.1369 37.074 46.6325C37.074 46.128 36.9792 45.6423 36.7918 45.195C36.6033 44.7477 36.3432 44.3586 36.0114 44.0278C35.6796 43.697 35.2894 43.4376 34.8408 43.2497C34.3921 43.0618 33.9082 42.9684 33.388 42.9684C32.8677 42.9684 32.3948 43.0618 31.9462 43.2497C31.4976 43.4376 31.1074 43.697 30.7756 44.0278C30.4438 44.3586 30.1814 44.7477 29.9896 45.195C29.7978 45.6423 29.7008 46.1214 29.7008 46.6325C29.7008 47.1435 29.7967 47.6095 29.9896 48.0535Z" fill="white"/>
<path d="M42.063 47.3996C42.1314 47.8205 42.268 48.214 42.4764 48.5778C42.6836 48.9426 42.9437 49.2581 43.2568 49.5251C43.5698 49.7922 43.9237 50.001 44.3205 50.1505C44.7162 50.301 45.1362 50.3758 45.5815 50.3758C46.1392 50.3758 46.6375 50.2746 47.074 50.0713C47.5116 49.868 47.8698 49.5976 48.1487 49.2592C48.2997 49.1394 48.4463 49.069 48.5896 49.0503C48.7329 49.0317 48.8685 49.0415 48.9963 49.0789C49.1617 49.1471 49.294 49.2635 49.3921 49.4284C49.5056 49.5867 49.5574 49.7724 49.5508 49.9867C49.5431 50.201 49.4417 50.3944 49.2455 50.5681C49.0493 50.7714 48.8288 50.9593 48.5841 51.1319C48.3394 51.3044 48.066 51.455 47.764 51.5836C47.462 51.7111 47.1302 51.8133 46.7686 51.888C46.4071 51.9627 46.0103 52.0012 45.5815 52.0012C44.8352 52.0012 44.1342 51.8627 43.4772 51.5847C42.8214 51.3066 42.2482 50.9253 41.7577 50.4395C41.2672 49.9548 40.8814 49.3855 40.5981 48.7316C40.3148 48.0777 40.1737 47.3787 40.1737 46.6336C40.1737 45.8885 40.3148 45.1906 40.5981 44.5356C40.8803 43.8817 41.2672 43.3124 41.7577 42.8277C42.2482 42.343 42.8214 41.9595 43.4772 41.677C44.1331 41.3946 44.8341 41.2539 45.5815 41.2539C46.3288 41.2539 47.0178 41.3935 47.6736 41.6715C48.3295 41.9496 48.9004 42.3309 49.3877 42.8156C49.8749 43.3003 50.2607 43.8663 50.5473 44.5125C50.8338 45.1587 50.9804 45.8511 50.9882 46.5874C50.9882 46.8281 50.911 47.0237 50.7567 47.1743C50.6024 47.3249 50.4006 47.3996 50.1515 47.3996H42.0641H42.063ZM49.2455 45.9786C49.1848 45.5423 49.0471 45.1345 48.8321 44.7554C48.6172 44.3751 48.3493 44.0465 48.0285 43.7685C47.7078 43.4904 47.3407 43.2728 46.9252 43.1145C46.5107 42.9563 46.0698 42.8783 45.6024 42.8783C45.1351 42.8783 44.6953 42.9585 44.2852 43.12C43.8741 43.2816 43.5103 43.5014 43.1939 43.7794C42.8776 44.0575 42.6153 44.3861 42.408 44.7664C42.2008 45.1466 42.0663 45.55 42.0068 45.9786H49.2455Z" fill="white"/>
<path d="M56.3374 49.1129L59.5495 41.7714C59.6476 41.5538 59.8041 41.4 60.0191 41.3087C60.234 41.2175 60.45 41.2263 60.6694 41.3307C60.8799 41.4285 61.0298 41.5868 61.1158 41.8044C61.2029 42.0231 61.1963 42.2407 61.0993 42.4583L57.1179 51.3559C57.0649 51.4691 57.0043 51.5549 56.9371 51.6153C56.8687 51.69 56.7861 51.7505 56.688 51.7956C56.6803 51.8032 56.6725 51.8065 56.6648 51.8065C56.6273 51.8285 56.5855 51.8439 56.5403 51.8516C56.5105 51.8593 56.484 51.8648 56.4609 51.8681C56.4377 51.8725 56.4113 51.8736 56.3815 51.8736H56.246C56.2008 51.8736 56.1589 51.8659 56.1214 51.8516C56.0916 51.8439 56.0464 51.8252 55.9858 51.7956C55.8877 51.7505 55.805 51.6944 55.7367 51.6263C55.6617 51.5516 55.6011 51.4615 55.5559 51.3559L51.5745 42.4583C51.5216 42.3451 51.4929 42.233 51.4896 42.1198C51.4852 42.0066 51.5051 41.9 51.5458 41.7989C51.5877 41.6978 51.6461 41.6033 51.7211 41.5175C51.7961 41.4318 51.8864 41.3648 51.9923 41.3197C52.2105 41.2219 52.4277 41.2186 52.6426 41.3087C52.8575 41.3989 53.0141 41.5527 53.1122 41.7714L56.3352 49.1129H56.3374Z" fill="white"/>
<path d="M21.0679 12.1782C19.0133 12.1782 17.3323 13.8542 17.3323 15.9028V16.3061C17.3323 17.2821 17.717 18.1712 18.3387 18.8372C19.0595 19.5032 20.0141 19.9208 21.0679 19.9417L26.3214 12.1782H21.0679ZM20.2544 17.2601C18.9614 17.2601 17.9132 16.2149 17.9132 14.9258C17.9132 13.6366 18.9614 12.5915 20.2544 12.5915C21.5474 12.5915 22.5957 13.6366 22.5957 14.9258C22.5957 16.2149 21.5474 17.2601 20.2544 17.2601Z" fill="#00C2A1"/>
<path d="M35.4372 15.5368C35.4086 15.2533 35.3457 14.9807 35.2565 14.7192C35.3259 14.9873 35.3667 15.2676 35.3667 15.5566C35.3667 17.415 33.8555 18.9207 31.9926 18.9207C30.1298 18.9207 28.6185 17.4139 28.6185 15.5566C28.6185 13.6993 30.1298 12.1925 31.9926 12.1925C32.0268 12.1925 32.0599 12.1969 32.094 12.198C31.9717 12.1859 31.8471 12.1782 31.7203 12.1782H28.5282C28.246 12.4145 27.9913 12.6882 27.7797 13.0014L23.0807 19.945H31.4271C31.5517 19.945 31.6752 19.9384 31.7975 19.9274C31.8372 19.9241 31.8758 19.9175 31.9144 19.9131C31.997 19.9032 32.0786 19.8933 32.1591 19.879C32.2043 19.8713 32.2483 19.8604 32.2924 19.8516C32.3663 19.8362 32.4401 19.8186 32.5129 19.7988C32.557 19.7867 32.6011 19.7735 32.6452 19.7603C32.7168 19.7384 32.7874 19.7142 32.8579 19.6889C32.8987 19.6735 32.9406 19.6581 32.9803 19.6416C33.053 19.612 33.1258 19.5801 33.1963 19.546C33.2316 19.5296 33.2657 19.5142 33.2999 19.4966C33.3815 19.4548 33.4597 19.4109 33.538 19.3647C33.5601 19.3515 33.5821 19.3405 33.603 19.3273C33.8081 19.1998 34.001 19.0559 34.1806 18.8965C34.1806 18.8965 34.1828 18.8943 34.1839 18.8943C34.271 18.8163 34.3548 18.735 34.4353 18.6492C34.4463 18.6371 34.4562 18.6251 34.4672 18.6141C34.5378 18.5382 34.605 18.4602 34.6689 18.3789C34.6811 18.3646 34.6921 18.3492 34.7031 18.3338C34.7659 18.2525 34.8266 18.169 34.8828 18.0832C34.8916 18.069 34.9015 18.0558 34.9103 18.0415C34.9699 17.9492 35.025 17.8546 35.0768 17.7579C35.0812 17.7502 35.0856 17.7425 35.09 17.7349C35.2069 17.514 35.3061 17.2832 35.381 17.0414C35.3832 17.0315 35.3832 17.0205 35.3854 17.0106C35.4538 16.7853 35.5045 16.5523 35.5331 16.3127C35.5287 16.0523 35.4935 15.7929 35.435 15.5401L35.4372 15.5368Z" fill="#00C2A1"/>
<path d="M23.2988 21.6111L22.439 22.8926C21.803 23.8399 21.6652 24.9796 21.9618 26.0017C22.2583 26.4743 22.654 26.8963 23.1478 27.2282L23.4862 27.4557C24.1773 27.9206 24.9743 28.1624 25.7911 28.1624C26.0567 28.1624 26.3246 28.1371 26.5913 28.0854C27.6782 27.8744 28.6173 27.2568 29.2346 26.3435L32.5073 21.5078C32.1567 21.5738 31.7974 21.6122 31.4281 21.6122H23.2999L23.2988 21.6111Z" fill="#00C2A1"/>
<path d="M20.2543 17.2599C21.5474 17.2599 22.5956 16.2148 22.5956 14.9256C22.5956 13.6364 21.5474 12.5913 20.2543 12.5913C18.9613 12.5913 17.9131 13.6364 17.9131 14.9256C17.9131 16.2148 18.9613 17.2599 20.2543 17.2599Z" fill="#5CFBD8"/>
<path d="M31.6211 3.14746C29.7693 3.14746 28.2668 4.64432 28.2668 6.49177C28.2668 6.9072 28.3462 7.30394 28.4862 7.67102C28.7805 8.14909 29.1674 8.56562 29.6304 8.88103C29.82 9.01072 30.0217 9.12172 30.2333 9.21733C30.8032 9.44373 31.8393 9.55693 31.8437 9.55803C32.094 9.58441 32.342 9.63276 32.59 9.69321C33.97 9.27888 34.9753 8.00292 34.9753 6.49177C34.9753 4.64542 33.474 3.14746 31.6211 3.14746ZM33.6041 7.59189C33.1003 7.59189 32.6925 7.18525 32.6925 6.683C32.6925 6.55991 32.7178 6.44231 32.7619 6.33461C32.7212 6.27636 32.6925 6.20932 32.6925 6.13349C32.6925 5.93457 32.8534 5.77411 33.0529 5.77411C33.129 5.77411 33.1962 5.80269 33.2547 5.84335C33.3627 5.79829 33.4795 5.77411 33.6041 5.77411C34.1078 5.77411 34.5157 6.18075 34.5157 6.683C34.5157 7.18525 34.1078 7.59189 33.6041 7.59189Z" fill="#00C2A1"/>
<path d="M33.2558 5.84463C33.1973 5.80397 33.1301 5.77539 33.054 5.77539C32.8545 5.77539 32.6936 5.93585 32.6936 6.13477C32.6936 6.2106 32.7234 6.27764 32.763 6.33589C32.8281 6.42931 32.9306 6.49415 33.0529 6.49415C33.2525 6.49415 33.4134 6.33369 33.4134 6.13477C33.4134 6.01278 33.3484 5.90947 33.2547 5.84463H33.2558Z" fill="white"/>
<path d="M45.2111 15.3685C44.8231 14.208 42.9305 10.801 38.9083 8.43593C38.8388 8.38977 38.7595 8.33922 38.657 8.27987C38.0728 7.93808 37.6341 7.54903 37.5481 6.32582C37.5282 6.03898 37.5106 5.77521 37.4919 5.52903C37.4852 5.13229 37.4367 4.74543 37.3519 4.37287C37.2945 4.07833 37.2152 3.80687 37.0994 3.5497C37.0972 3.54421 37.0928 3.54091 37.0906 3.53542C36.2584 1.46707 34.2313 0.000976562 31.8625 0.000976562C28.7563 0.000976562 26.2288 2.52102 26.2288 5.61915C26.2288 7.18305 26.8747 8.59859 27.912 9.61738H21.1484C17.944 9.61738 15.3372 12.2166 15.3372 15.4114V15.818C15.3372 18.6656 17.4094 21.034 20.1277 21.5164C19.0452 24.0222 19.862 27.028 22.2121 28.6084L22.5505 28.8359C23.5128 29.4832 24.6338 29.825 25.7923 29.825C27.7334 29.825 29.5367 28.8711 30.618 27.2742L36.2992 19.0162C37.6958 16.9533 37.612 14.1684 36.254 12.1913C36.2441 12.177 36.2331 12.1616 36.2231 12.1473C36.146 12.0363 36.0655 11.9275 35.9795 11.8231C35.9013 11.7253 35.8197 11.6319 35.7359 11.5396C35.7183 11.5209 35.7018 11.5011 35.683 11.4813C35.1539 10.912 34.5146 10.4482 33.7959 10.1262C33.1709 9.8163 32.5096 9.63057 31.8416 9.55913C31.8372 9.55913 30.801 9.44483 30.2311 9.21843C30.0206 9.12282 29.8178 9.01182 29.6282 8.88213C28.5832 8.16997 27.8965 6.97204 27.8965 5.61805C27.8965 3.4387 29.6745 1.66599 31.8603 1.66599C33.6196 1.66599 35.112 2.81446 35.629 4.39705C35.6709 4.53113 35.7855 4.95425 35.8241 5.64553C35.8241 5.71367 35.8263 5.83676 35.8384 6.0093C35.8682 7.27757 36.1989 8.16558 36.5307 8.63266C36.7522 8.94478 36.9396 9.1426 37.2968 9.38878C37.4202 9.48659 37.5492 9.57891 37.6936 9.65804C42.1964 12.099 43.6106 15.8598 43.6227 15.8972C43.7363 16.2379 44.0548 16.4665 44.4153 16.4665C44.5046 16.4665 44.5938 16.4522 44.6798 16.4236C45.1174 16.2774 45.3544 15.8048 45.2078 15.3696L45.2111 15.3685ZM17.0082 15.8169V15.4103C17.0082 13.1342 18.8656 11.2824 21.1484 11.2824H27.0378C26.8042 11.522 26.5881 11.7846 26.3941 12.0704L21.0668 19.9415C18.8215 19.8976 17.0082 18.0666 17.0082 15.8169ZM29.2336 26.3422C28.6163 27.2544 27.6772 27.8732 26.5903 28.0842C26.3236 28.1358 26.0557 28.1611 25.7901 28.1611C24.9733 28.1611 24.1763 27.9193 23.4852 27.4544L23.1468 27.2269C21.2917 25.9784 20.778 23.4859 21.9608 21.6099H31.426C31.7953 21.6099 32.1546 21.5714 32.5052 21.5054L29.2325 26.3411L29.2336 26.3422ZM31.2177 11.2077C32.0433 11.2077 32.8424 11.4275 33.5281 11.889L33.8665 12.1165C34.1442 12.3034 34.3923 12.5199 34.6083 12.7573C35.2046 13.4925 35.5673 14.4223 35.5673 15.4103V15.8169C35.5673 18.093 33.7099 19.9459 31.426 19.9459H23.0796L27.7786 13.0023C28.5491 11.8638 29.8343 11.2088 31.2166 11.2088L31.2177 11.2077Z" fill="white"/>
<path d="M31.9926 18.9206C33.8561 18.9206 35.3667 17.4144 35.3667 15.5565C35.3667 13.6985 33.8561 12.1924 31.9926 12.1924C30.1292 12.1924 28.6185 13.6985 28.6185 15.5565C28.6185 17.4144 30.1292 18.9206 31.9926 18.9206Z" fill="#5CFBD8"/>
</g>
<defs>
<clipPath id="clip0_1_2582">
<rect width="61.1765" height="52" fill="white"/>
</clipPath>
</defs>
</svg>
